<svg id="visual" viewBox="0 0 900 900" width="900" height="900" xmlns="http://www.w3.org/2000/svg" xmlns:xlink="http://www.w3.org/1999/xlink" version="1.1"><defs><linearGradient id="grad1_0" x1="0%" y1="0%" x2="100%" y2="100%"><stop offset="30%" stop-color="transparent" stop-opacity="1"></stop><stop offset="70%" stop-color="transparent" stop-opacity="1"></stop></linearGradient></defs><defs><linearGradient id="grad2_0" x1="0%" y1="0%" x2="100%" y2="100%"><stop offset="30%" stop-color="#ffffff" stop-opacity="1"></stop><stop offset="70%" stop-color="#ffffff" stop-opacity="1"></stop></linearGradient></defs><g transform="translate(900, 0)"><path d="M0 572.8C-49.9 506.7 -99.8 440.6 -175.3 423.1C-250.7 405.7 -351.7 436.8 -405 405C-458.3 373.2 -464.1 278.5 -484.1 200.5C-504.1 122.5 -538.4 61.3 -572.8 0L0 0Z" fill="#F0A04B"></path></g><g transform="translate(0, 900)"><path d="M0 -572.8C70 -540.1 140.1 -507.4 194 -468.4C248 -429.4 285.9 -384.2 345.8 -345.8C405.7 -307.3 487.7 -275.7 529.2 -219.2C570.7 -162.7 571.7 -81.3 572.8 0L0 0Z" fill="#F0A04B"></path></g></svg>