<svg id="visual" viewBox="0 0 960 50" width="960" height="50" xmlns="http://www.w3.org/2000/svg" xmlns:xlink="http://www.w3.org/1999/xlink" version="1.1"><path d="M0 17L6.7 20.3C13.3 23.7 26.7 30.3 40 29.5C53.3 28.7 66.7 20.3 80 19.8C93.3 19.3 106.7 26.7 120 30.2C133.3 33.7 146.7 33.3 160 31C173.3 28.7 186.7 24.3 200 19.7C213.3 15 226.7 10 240 11.2C253.3 12.3 266.7 19.7 280 24.8C293.3 30 306.7 33 320 35.8C333.3 38.7 346.7 41.3 360 36C373.3 30.7 386.7 17.3 400 14.8C413.3 12.3 426.7 20.7 440 27.2C453.3 33.7 466.7 38.3 480 36.2C493.3 34 506.7 25 520 24.3C533.3 23.7 546.7 31.3 560 35C573.3 38.7 586.7 38.3 600 38C613.3 37.7 626.7 37.3 640 32.2C653.3 27 666.7 17 680 12.5C693.3 8 706.7 9 720 12.2C733.3 15.3 746.7 20.7 760 20.3C773.3 20 786.7 14 800 15C813.3 16 826.7 24 840 26C853.3 28 866.7 24 880 19.3C893.3 14.7 906.7 9.3 920 8.7C933.3 8 946.7 12 953.3 14L960 16L960 51L953.3 51C946.7 51 933.3 51 920 51C906.7 51 893.3 51 880 51C866.7 51 853.3 51 840 51C826.7 51 813.3 51 800 51C786.7 51 773.3 51 760 51C746.7 51 733.3 51 720 51C706.7 51 693.3 51 680 51C666.7 51 653.3 51 640 51C626.7 51 613.3 51 600 51C586.7 51 573.3 51 560 51C546.7 51 533.3 51 520 51C506.7 51 493.3 51 480 51C466.7 51 453.3 51 440 51C426.7 51 413.3 51 400 51C386.7 51 373.3 51 360 51C346.7 51 333.3 51 320 51C306.7 51 293.3 51 280 51C266.7 51 253.3 51 240 51C226.7 51 213.3 51 200 51C186.7 51 173.3 51 160 51C146.7 51 133.3 51 120 51C106.7 51 93.3 51 80 51C66.7 51 53.3 51 40 51C26.7 51 13.3 51 6.7 51L0 51Z" fill="#1c1a33" stroke-linecap="round" stroke-linejoin="miter"></path></svg>