<svg id="visual" viewBox="0 0 960 50" width="960" height="50" xmlns="http://www.w3.org/2000/svg" xmlns:xlink="http://www.w3.org/1999/xlink" version="1.1"><path d="M0 31L6.7 27.7C13.3 24.3 26.7 17.7 40 18.5C53.3 19.3 66.7 27.7 80 28.2C93.3 28.7 106.7 21.3 120 17.8C133.3 14.3 146.7 14.7 160 17C173.3 19.3 186.7 23.7 200 28.3C213.3 33 226.7 38 240 36.8C253.3 35.7 266.7 28.3 280 23.2C293.3 18 306.7 15 320 12.2C333.3 9.3 346.7 6.7 360 12C373.3 17.3 386.7 30.7 400 33.2C413.3 35.7 426.7 27.3 440 20.8C453.3 14.3 466.7 9.7 480 11.8C493.3 14 506.7 23 520 23.7C533.3 24.3 546.7 16.7 560 13C573.3 9.3 586.7 9.7 600 10C613.3 10.3 626.7 10.7 640 15.8C653.3 21 666.7 31 680 35.5C693.3 40 706.7 39 720 35.8C733.3 32.7 746.7 27.3 760 27.7C773.3 28 786.7 34 800 33C813.3 32 826.7 24 840 22C853.3 20 866.7 24 880 28.7C893.3 33.3 906.7 38.7 920 39.3C933.3 40 946.7 36 953.3 34L960 32L960 0L953.3 0C946.7 0 933.3 0 920 0C906.7 0 893.3 0 880 0C866.7 0 853.3 0 840 0C826.7 0 813.3 0 800 0C786.7 0 773.3 0 760 0C746.7 0 733.3 0 720 0C706.7 0 693.3 0 680 0C666.7 0 653.3 0 640 0C626.7 0 613.3 0 600 0C586.7 0 573.3 0 560 0C546.7 0 533.3 0 520 0C506.7 0 493.3 0 480 0C466.7 0 453.3 0 440 0C426.7 0 413.3 0 400 0C386.7 0 373.3 0 360 0C346.7 0 333.3 0 320 0C306.7 0 293.3 0 280 0C266.7 0 253.3 0 240 0C226.7 0 213.3 0 200 0C186.7 0 173.3 0 160 0C146.7 0 133.3 0 120 0C106.7 0 93.3 0 80 0C66.7 0 53.3 0 40 0C26.7 0 13.3 0 6.7 0L0 0Z" fill="#03001C" stroke-linecap="round" stroke-linejoin="miter"></path></svg>